HIERARCHY
ROOT Hips
{
	OFFSET -3.958830 18.904000 13.208200
	CHANNELS 6 Xposition Yposition Zposition Zrotation Yrotation Xrotation 
	JOINT LHipJoint
	{
		OFFSET 0.000000 0.000000 0.000000
		CHANNELS 3 Zrotation Yrotation Xrotation
		JOINT LeftUpLeg
		{
			OFFSET 1.800000 -1.400000 0.085000
			CHANNELS 3 Zrotation Yrotation Xrotation
			JOINT LeftLeg
			{
				OFFSET 2.215000 -6.000000 0.000000
				CHANNELS 3 Zrotation Yrotation Xrotation
				JOINT LeftFoot
				{
					OFFSET 2.500000 -6.900000 0.000000
					CHANNELS 3 Zrotation Yrotation Xrotation
					JOINT LeftToeBase
					{
						OFFSET 0.200000 -0.500000 1.950000
						CHANNELS 3 Zrotation Yrotation Xrotation
						End Site
						{
							OFFSET 0.000000 0.000000 0.000000
						}
					}
				}
			}
		}
	}
	JOINT RHipJoint
	{
		OFFSET 0.000000 0.000000 0.000000
		CHANNELS 3 Zrotation Yrotation Xrotation
		JOINT RightUpLeg
		{
			OFFSET -1.800000 -1.400000 0.085000
			CHANNELS 3 Zrotation Yrotation Xrotation
			JOINT RightLeg
			{
				OFFSET -2.215000 -6.000000 0.000000
				CHANNELS 3 Zrotation Yrotation Xrotation
				JOINT RightFoot
				{
					OFFSET -2.500000 -6.900000 0.000000
					CHANNELS 3 Zrotation Yrotation Xrotation
					JOINT RightToeBase
					{
						OFFSET -0.200000 -0.500000 1.950000
						CHANNELS 3 Zrotation Yrotation Xrotation
						End Site
						{
							OFFSET 0.000000 0.000000 0.000000
						}
					}
				}
			}
		}
	}
	JOINT LowerBack
	{
		OFFSET 0.000000 0.000000 0.000000
		CHANNELS 3 Zrotation Yrotation Xrotation
		JOINT Spine
		{
			OFFSET -0.087000 1.940000 -0.288900
			CHANNELS 3 Zrotation Yrotation Xrotation
			JOINT Spine1
			{
				OFFSET 0.000000 1.950000 0.060000
				CHANNELS 3 Zrotation Yrotation Xrotation
				JOINT Neck
				{
					OFFSET 0.000000 0.000000 0.000000
					CHANNELS 3 Zrotation Yrotation Xrotation
					JOINT Neck1
					{
						OFFSET 0.000000 1.600000 0.340000
						CHANNELS 3 Zrotation Yrotation Xrotation
						JOINT Head
						{
							OFFSET 0.000000 1.667000 -0.240000
							CHANNELS 3 Zrotation Yrotation Xrotation
							End Site
							{
								OFFSET 0.000000 0.000000 0.000000
							}
						}
					}
				}
				JOINT LeftShoulder
				{
					OFFSET 0.000000 0.000000 0.000000
					CHANNELS 3 Zrotation Yrotation Xrotation
					JOINT LeftArm
					{
						OFFSET 2.700000 1.550000 -0.730000
						CHANNELS 3 Zrotation Yrotation Xrotation
						JOINT LeftForeArm
						{
							OFFSET 5.450000 0.000000 0.000000
							CHANNELS 3 Zrotation Yrotation Xrotation
							JOINT LeftHand
							{
								OFFSET 3.450000 0.000000 0.000000
								CHANNELS 3 Zrotation Yrotation Xrotation
								JOINT LeftHandIndex1
								{
									OFFSET 0.750000 0.000000 0.000000
									CHANNELS 3 Zrotation Yrotation Xrotation
									End Site
									{
										OFFSET 0.000000 0.000000 0.000000
									}
								}
							}
						}
					}
				}
				JOINT RightShoulder
				{
					OFFSET 0.000000 0.000000 0.000000
					CHANNELS 3 Zrotation Yrotation Xrotation
					JOINT RightArm
					{
						OFFSET -2.700000 1.550000 -0.730000
						CHANNELS 3 Zrotation Yrotation Xrotation
						JOINT RightForeArm
						{
							OFFSET -5.450000 0.000000 0.000000
							CHANNELS 3 Zrotation Yrotation Xrotation
							JOINT RightHand
							{
								OFFSET -3.450000 0.000000 0.000000
								CHANNELS 3 Zrotation Yrotation Xrotation
								JOINT RightHandIndex1
								{
									OFFSET -0.750000 0.000000 0.000000
									CHANNELS 3 Zrotation Yrotation Xrotation
									End Site
									{
										OFFSET 0.000000 0.000000 0.000000
									}
								}
							}
						}
					}
				}
			}
		}
	}
}
MOTION
Frames: 7
Frame Time: 0.016667
0.481380 12.893780 -3.429990 -70.903227 -54.938019 30.588124 -15.891825 7.136217 4.435181 -28.281692 -20.819314 -76.177321 62.872558 -17.950045 62.552977 2.292447 16.333670 -0.959690 0.346000 0.318450 0.112740 18.913094 -3.419835 8.677956 -53.897853 16.742753 -32.919680 108.460992 22.251081 -8.074946 -0.981571 -4.803536 2.472053 0.237500 0.157760 0.179360 -4.242917 -0.641784 -11.851922 9.734274 7.983508 54.979050 -16.244189 14.076580 20.705637 10.658127 -3.308239 -14.114501 -8.449835 11.094750 57.755387 9.498500 -0.756080 -4.430010 -11.375811 -28.245175 13.685142 -29.552233 -12.189664 3.193738 13.010414 0.948144 -0.737511 -3.908639 3.187748 0.291820 0.041370 -0.036390 -0.099360 -11.791071 39.293394 -4.992300 -12.620695 27.210103 -20.543152 -60.885684 35.124774 -21.964149 2.979563 -1.673210 -0.028030 0.042470 0.194650 -0.016570 
0.433720 12.940550 -3.411950 -68.580412 -55.070980 26.730327 -16.044267 7.513945 4.703366 -28.485503 -21.621449 -74.381993 68.117702 -20.412811 63.557258 2.812482 17.252213 -1.030589 0.459460 0.454150 0.244800 18.673982 -3.924563 8.059656 -52.744938 14.179640 -33.513787 120.629185 10.227720 -0.694543 -1.322256 -5.664822 2.226277 0.226750 0.006860 0.160820 -4.000048 -1.085238 -11.614576 7.809253 8.354351 56.843212 -15.720967 13.985224 20.888234 11.430541 -1.510827 -14.885810 -5.007782 8.080552 60.091955 5.974230 -0.770010 -3.593610 -13.284623 -28.600438 13.806396 -27.171151 -11.052295 2.540495 11.953096 1.824454 -0.453669 -3.794483 3.266047 0.227070 -0.032450 0.047460 -0.041180 -11.315347 39.543240 -4.130644 -11.193081 24.686224 -21.385192 -63.429069 35.708393 -23.305294 3.110335 -1.783431 0.102070 -0.025400 0.034310 -0.011870 
0.342400 13.024160 -3.385370 -66.926654 -56.558464 22.406880 -16.084215 8.332384 4.990964 -28.723603 -21.280123 -72.776556 73.856508 -22.910709 64.725792 3.250051 18.174993 -1.105988 0.532170 0.541690 0.397160 18.405807 -5.071283 6.843205 -47.360087 13.631658 -36.001943 132.347973 -18.994836 8.148208 -2.293016 -8.954918 1.284677 0.212210 -0.132500 0.128280 -3.734346 -1.458173 -11.101174 5.830816 9.489046 60.025437 -15.243105 14.346106 20.071061 11.471143 1.100271 -16.266596 -0.265244 4.513893 62.162668 2.259820 0.013950 -4.524130 -17.457260 -29.349242 13.612245 -22.965802 -9.026285 1.759479 9.780309 3.606700 -0.244287 -3.713341 3.163225 0.249570 -0.113000 0.165250 -0.016600 -7.516371 39.856096 -2.137835 -9.682999 21.638165 -22.526142 -63.532842 33.780925 -22.418521 3.158951 -1.810971 0.159890 -0.021100 -0.091690 -0.038260 
0.294490 13.084110 -3.299830 -66.875666 -57.478292 19.545731 -15.997844 8.816827 5.373525 -27.495719 -21.508807 -70.415823 79.798254 -26.763190 67.019598 3.635130 19.271217 -1.250277 0.593410 0.591900 0.504890 18.276725 -6.137537 5.786417 -42.394400 15.767357 -36.002374 130.161541 -41.386185 14.983186 -2.823863 -10.951217 0.761186 0.213080 -0.239940 0.092260 -3.847718 -1.247052 -10.730150 6.892196 7.836373 63.285356 -16.601614 13.421296 19.471460 11.167457 3.073498 -17.961248 3.194268 2.230552 65.757648 0.517290 0.613800 -5.026680 -21.943460 -30.694647 13.851205 -19.201829 -5.929087 1.179154 7.023494 4.567632 -0.268941 -3.597160 3.026007 0.328350 -0.185490 0.253810 0.002790 -2.471433 39.651775 -0.201082 -6.508942 20.495443 -23.184647 -64.838219 34.068490 -23.221603 3.124055 -1.779429 0.163410 -0.008390 -0.176710 -0.080900 
0.251080 13.139200 -3.227380 -68.002233 -59.178257 17.908824 -15.943505 9.029806 5.582032 -22.218715 -20.721412 -68.210959 86.393246 -31.355136 70.756570 3.975667 20.337785 -1.391852 0.618790 0.621410 0.585200 18.218269 -6.664608 5.266322 -39.815181 18.133920 -36.944546 118.691335 -55.098466 25.698337 -2.903444 -11.281320 0.650140 0.223240 -0.298470 0.053840 -3.973378 -1.103296 -10.556883 7.454378 6.570521 66.477248 -17.415208 13.221836 18.815183 10.450659 4.666063 -19.193731 6.051139 0.301096 68.668253 0.340420 1.136910 -7.386820 -25.573679 -31.365703 13.269216 -16.652375 -4.663528 1.070401 4.774311 6.314292 -0.427829 -3.570947 2.788371 0.422440 -0.244100 0.331210 -0.014290 2.370762 38.704395 2.037140 -1.814784 20.363870 -23.681650 -64.117960 33.406774 -23.095832 3.049060 -1.710337 0.134940 0.063640 -0.196850 -0.121940 
0.218230 13.209390 -3.165680 -67.763667 -61.181926 14.792953 -15.985199 8.973833 5.608749 -15.573749 -19.190033 -64.219332 92.774210 -35.157047 73.282501 4.128072 20.667603 -1.420787 0.702980 0.718880 0.680920 18.150139 -6.416498 5.443223 -39.992277 21.482529 -36.579838 100.810290 -59.897424 39.797374 -3.041643 -11.730601 0.494875 0.271310 -0.351880 0.034880 -3.997894 -1.379934 -10.618254 6.391185 5.962996 69.544172 -17.270442 13.748013 20.194052 10.089336 4.952736 -20.940663 5.128424 0.764095 71.814793 2.315820 0.907330 -11.454080 -26.895781 -33.128352 13.298292 -16.174433 -4.404742 1.146797 4.242119 6.840792 -0.530197 -3.534894 2.618090 0.529080 -0.321330 0.426850 -0.021320 4.171990 40.154146 3.369387 -0.473808 18.424396 -26.304499 -61.246697 29.367607 -20.039418 3.127791 -1.735432 0.131070 0.149330 -0.220330 -0.145540 
0.188130 13.267250 -3.113960 -64.893507 -62.063844 10.785389 -16.141806 8.831925 5.705710 -9.068633 -19.354119 -59.703657 94.704214 -38.222902 76.942254 4.187968 20.914867 -1.474889 0.801930 0.837790 0.761350 18.039210 -5.843027 5.698750 -41.069873 23.041829 -36.461269 80.105027 -59.777267 54.527082 -3.379908 -13.067135 0.128463 0.341830 -0.407680 0.006510 -3.807460 -2.072887 -10.801182 3.703769 6.434413 70.814486 -14.450230 14.131250 21.928657 9.084594 5.200938 -22.596350 3.606308 1.187824 75.715193 5.336540 0.162110 -15.207880 -27.553572 -34.940785 13.032463 -18.121981 -6.115755 1.284494 5.586611 7.298867 -0.427619 -3.512347 2.541046 0.638730 -0.406790 0.517430 -0.016070 6.765799 41.626275 5.945331 1.723855 15.266399 -28.606594 -58.056086 27.341403 -18.122917 3.190859 -1.794599 0.122460 0.230810 -0.251200 -0.165930 
